<svg width="1653" height="993" xmlns="http://www.w3.org/2000/svg" xmlns:xlink="http://www.w3.org/1999/xlink" xml:space="preserve" overflow="hidden"><defs><clipPath id="clip0"><rect x="658" y="732" width="1653" height="993"/></clipPath><clipPath id="clip1"><rect x="658" y="733" width="1650" height="990"/></clipPath><clipPath id="clip2"><rect x="845" y="903" width="1416" height="620"/></clipPath><clipPath id="clip3"><rect x="658" y="733" width="1650" height="990"/></clipPath><clipPath id="clip4"><rect x="658" y="733" width="1650" height="990"/></clipPath><clipPath id="clip5"><rect x="658" y="733" width="1650" height="990"/></clipPath><clipPath id="clip6"><rect x="658" y="733" width="1650" height="990"/></clipPath><clipPath id="clip7"><rect x="658" y="733" width="1650" height="990"/></clipPath><clipPath id="clip8"><rect x="658" y="733" width="1650" height="990"/></clipPath><clipPath id="clip9"><rect x="658" y="733" width="1650" height="990"/></clipPath><clipPath id="clip10"><rect x="658" y="733" width="1650" height="990"/></clipPath><clipPath id="clip11"><rect x="658" y="733" width="1650" height="990"/></clipPath><clipPath id="clip12"><rect x="658" y="733" width="1650" height="990"/></clipPath><clipPath id="clip13"><rect x="658" y="733" width="1650" height="990"/></clipPath><clipPath id="clip14"><rect x="658" y="733" width="1650" height="990"/></clipPath><clipPath id="clip15"><rect x="658" y="733" width="1650" height="990"/></clipPath><clipPath id="clip16"><rect x="658" y="733" width="1650" height="990"/></clipPath><clipPath id="clip17"><rect x="658" y="733" width="1650" height="990"/></clipPath><clipPath id="clip18"><rect x="658" y="733" width="1650" height="990"/></clipPath><clipPath id="clip19"><rect x="658" y="733" width="1650" height="990"/></clipPath></defs><g clip-path="url(#clip0)" transform="translate(-658 -732)"><rect x="659" y="733" width="1650" height="990" fill="#FFFFFF"/><g clip-path="url(#clip1)"><path d="M845.5 1431.55 2258.5 1431.55M845.5 1343.54 2258.5 1343.54M845.5 1255.54 2258.5 1255.54M845.5 1167.54 2258.5 1167.54M845.5 1079.54 2258.5 1079.54M845.5 991.533 2258.5 991.533M845.5 903.5 2258.5 903.5" stroke="#D9D9D9" stroke-width="3.4375" stroke-linejoin="round" stroke-miterlimit="10" fill="none"/></g><g clip-path="url(#clip2)"><path d="M1790.06 1344.04 1879.06 1344.04 1879.06 1520 1790.06 1520ZM2073.07 991.033 2161.07 991.033 2161.07 1520 2073.07 1520Z" fill="#4472C4"/></g><g clip-path="url(#clip3)"><path d="M845.5 1519.5 2258.5 1519.5" stroke="#D9D9D9" stroke-width="3.4375" stroke-linejoin="round" stroke-miterlimit="10" fill="none" fill-rule="evenodd"/></g><g clip-path="url(#clip4)"><text fill="#595959" font-family="Calibri,Calibri_MSFontService,sans-serif" font-weight="400" font-size="41" transform="matrix(1 0 0 1 785.836 1531)">0</text></g><g clip-path="url(#clip5)"><text fill="#595959" font-family="Calibri,Calibri_MSFontService,sans-serif" font-weight="400" font-size="41" transform="matrix(1 0 0 1 785.836 1443)">1</text></g><g clip-path="url(#clip6)"><text fill="#595959" font-family="Calibri,Calibri_MSFontService,sans-serif" font-weight="400" font-size="41" transform="matrix(1 0 0 1 785.836 1355)">2</text></g><g clip-path="url(#clip7)"><text fill="#595959" font-family="Calibri,Calibri_MSFontService,sans-serif" font-weight="400" font-size="41" transform="matrix(1 0 0 1 785.836 1267)">3</text></g><g clip-path="url(#clip8)"><text fill="#595959" font-family="Calibri,Calibri_MSFontService,sans-serif" font-weight="400" font-size="41" transform="matrix(1 0 0 1 785.836 1179)">4</text></g><g clip-path="url(#clip9)"><text fill="#595959" font-family="Calibri,Calibri_MSFontService,sans-serif" font-weight="400" font-size="41" transform="matrix(1 0 0 1 785.836 1091)">5</text></g><g clip-path="url(#clip10)"><text fill="#595959" font-family="Calibri,Calibri_MSFontService,sans-serif" font-weight="400" font-size="41" transform="matrix(1 0 0 1 785.836 1003)">6</text></g><g clip-path="url(#clip11)"><text fill="#595959" font-family="Calibri,Calibri_MSFontService,sans-serif" font-weight="400" font-size="41" transform="matrix(1 0 0 1 785.836 915)">7</text></g><g clip-path="url(#clip12)"><text fill="#595959" font-family="Calibri,Calibri_MSFontService,sans-serif" font-weight="400" font-size="41" transform="matrix(1 0 0 1 975.896 1585)">1</text></g><g clip-path="url(#clip13)"><text fill="#595959" font-family="Calibri,Calibri_MSFontService,sans-serif" font-weight="400" font-size="41" transform="matrix(1 0 0 1 1258.58 1585)">2</text></g><g clip-path="url(#clip14)"><text fill="#595959" font-family="Calibri,Calibri_MSFontService,sans-serif" font-weight="400" font-size="41" transform="matrix(1 0 0 1 1541.27 1585)">3</text></g><g clip-path="url(#clip15)"><text fill="#595959" font-family="Calibri,Calibri_MSFontService,sans-serif" font-weight="400" font-size="41" transform="matrix(1 0 0 1 1823.96 1585)">4</text></g><g clip-path="url(#clip16)"><text fill="#595959" font-family="Calibri,Calibri_MSFontService,sans-serif" font-weight="400" font-size="41" transform="matrix(1 0 0 1 2106.64 1585)">5</text></g><g clip-path="url(#clip17)"><text fill="#595959" font-family="Calibri,Calibri_MSFontService,sans-serif" font-weight="400" font-size="46" transform="matrix(6.12323e-17 -1 1 6.12323e-17 760.146 1411)">Number of responses</text></g><g clip-path="url(#clip18)"><text fill="#595959" font-family="Calibri,Calibri_MSFontService,sans-serif" font-weight="400" font-size="46" transform="matrix(1 0 0 1 1492.54 1654)">Rating</text></g><g clip-path="url(#clip19)"><text fill="#595959" font-family="Calibri,Calibri_MSFontService,sans-serif" font-weight="400" font-size="64" transform="matrix(1 0 0 1 847.309 829)">What did you think of the design of the webapp?</text></g><rect x="659.5" y="733.5" width="1650" height="990" stroke="#D9D9D9" stroke-width="3.4375" stroke-linejoin="round" stroke-miterlimit="10" fill="none"/></g></svg>