<svg width="1642" height="985" xmlns="http://www.w3.org/2000/svg" xmlns:xlink="http://www.w3.org/1999/xlink" xml:space="preserve" overflow="hidden"><defs><clipPath id="clip0"><rect x="882" y="3192" width="1642" height="985"/></clipPath><clipPath id="clip1"><rect x="883" y="3193" width="1638" height="981"/></clipPath><clipPath id="clip2"><rect x="1046" y="3363" width="1428" height="632"/></clipPath><clipPath id="clip3"><rect x="1046" y="3363" width="1428" height="632"/></clipPath><clipPath id="clip4"><rect x="1046" y="3363" width="1428" height="632"/></clipPath><clipPath id="clip5"><rect x="1046" y="3363" width="1428" height="632"/></clipPath><clipPath id="clip6"><rect x="1046" y="3363" width="1428" height="632"/></clipPath><clipPath id="clip7"><rect x="883" y="3193" width="1638" height="981"/></clipPath><clipPath id="clip8"><rect x="883" y="3193" width="1638" height="981"/></clipPath><clipPath id="clip9"><rect x="883" y="3193" width="1638" height="981"/></clipPath><clipPath id="clip10"><rect x="883" y="3193" width="1638" height="981"/></clipPath><clipPath id="clip11"><rect x="883" y="3193" width="1638" height="981"/></clipPath><clipPath id="clip12"><rect x="883" y="3193" width="1638" height="981"/></clipPath><clipPath id="clip13"><rect x="883" y="3193" width="1638" height="981"/></clipPath><clipPath id="clip14"><rect x="883" y="3193" width="1638" height="981"/></clipPath><clipPath id="clip15"><rect x="883" y="3193" width="1638" height="981"/></clipPath><clipPath id="clip16"><rect x="883" y="3193" width="1638" height="981"/></clipPath><clipPath id="clip17"><rect x="883" y="3193" width="1638" height="981"/></clipPath><clipPath id="clip18"><rect x="883" y="3193" width="1638" height="981"/></clipPath><clipPath id="clip19"><rect x="883" y="3193" width="1638" height="981"/></clipPath><clipPath id="clip20"><rect x="883" y="3193" width="1638" height="981"/></clipPath><clipPath id="clip21"><rect x="883" y="3193" width="1638" height="981"/></clipPath><clipPath id="clip22"><rect x="883" y="3193" width="1638" height="981"/></clipPath><clipPath id="clip23"><rect x="883" y="3193" width="1638" height="981"/></clipPath><clipPath id="clip24"><rect x="883" y="3193" width="1638" height="981"/></clipPath><clipPath id="clip25"><rect x="883" y="3193" width="1638" height="981"/></clipPath><clipPath id="clip26"><rect x="883" y="3193" width="1638" height="981"/></clipPath><clipPath id="clip27"><rect x="883" y="3193" width="1638" height="981"/></clipPath><clipPath id="clip28"><rect x="883" y="3193" width="1638" height="981"/></clipPath><clipPath id="clip29"><rect x="883" y="3193" width="1638" height="981"/></clipPath><clipPath id="clip30"><rect x="883" y="3193" width="1638" height="981"/></clipPath><clipPath id="clip31"><rect x="883" y="3193" width="1638" height="981"/></clipPath><clipPath id="clip32"><rect x="883" y="3193" width="1638" height="981"/></clipPath><clipPath id="clip33"><rect x="883" y="3193" width="1638" height="981"/></clipPath></defs><g clip-path="url(#clip0)" transform="translate(-882 -3192)"><rect x="883" y="3193" width="1639" height="982" fill="#FFFFFF"/><g clip-path="url(#clip1)"><path d="M1046.5 3929.63 2471.5 3929.63M1046.5 3866.63 2471.5 3866.63M1046.5 3803.62 2471.5 3803.62M1046.5 3740.62 2471.5 3740.62M1046.5 3677.62 2471.5 3677.62M1046.5 3614.62 2471.5 3614.62M1046.5 3551.62 2471.5 3551.62M1046.5 3488.61 2471.5 3488.61M1046.5 3425.61 2471.5 3425.61M1046.5 3363.5 2471.5 3363.5" stroke="#D9D9D9" stroke-width="3.4375" stroke-linejoin="round" stroke-miterlimit="10" fill="none"/></g><g clip-path="url(#clip2)"><rect x="1892" y="3451" width="49.9999" height="541" fill="#ED7D31"/></g><g clip-path="url(#clip3)"><rect x="2051" y="3765" width="48.9998" height="227" fill="#ED7D31"/></g><g clip-path="url(#clip4)"><rect x="2209" y="3747" width="50.0002" height="245" fill="#ED7D31"/></g><g clip-path="url(#clip5)"><rect x="2367" y="3870" width="49.9998" height="122" fill="#ED7D31"/></g><g clip-path="url(#clip6)"><path d="M1100.04 3695.12 1150.04 3695.12 1150.04 3992 1100.04 3992ZM1259.04 3529.12 1308.04 3529.12 1308.04 3992 1259.04 3992ZM1417.05 3878.13 1467.05 3878.13 1467.05 3992 1417.05 3992ZM1576.05 3782.12 1625.05 3782.12 1625.05 3992 1576.05 3992Z" fill="#4472C4"/></g><g clip-path="url(#clip7)"><path d="M1046.5 3992.5 2471.5 3992.5" stroke="#D9D9D9" stroke-width="3.4375" stroke-linejoin="round" stroke-miterlimit="10" fill="none" fill-rule="evenodd"/></g><g clip-path="url(#clip8)"><path d="M1046.5 3992.5 1046.5 4072.5M1837.56 3992.5 1837.56 4072.5M2471.5 3992.5 2471.5 4072.5" stroke="#D9D9D9" stroke-width="3.4375" stroke-linejoin="round" stroke-miterlimit="10" fill="none"/></g><g clip-path="url(#clip9)"><path d="M1046.5 4072.5 1046.5 4151.5M1837.56 4072.5 1837.56 4151.5M2471.5 4072.5 2471.5 4151.5" stroke="#D9D9D9" stroke-width="3.4375" stroke-linejoin="round" stroke-miterlimit="10" fill="none"/></g><g clip-path="url(#clip10)"><text fill="#595959" font-family="Calibri,Calibri_MSFontService,sans-serif" font-weight="400" font-size="41" transform="matrix(1 0 0 1 913.112 4004)">00:00</text></g><g clip-path="url(#clip11)"><text fill="#595959" font-family="Calibri,Calibri_MSFontService,sans-serif" font-weight="400" font-size="41" transform="matrix(1 0 0 1 913.112 3941)">00:07</text></g><g clip-path="url(#clip12)"><text fill="#595959" font-family="Calibri,Calibri_MSFontService,sans-serif" font-weight="400" font-size="41" transform="matrix(1 0 0 1 913.112 3878)">00:14</text></g><g clip-path="url(#clip13)"><text fill="#595959" font-family="Calibri,Calibri_MSFontService,sans-serif" font-weight="400" font-size="41" transform="matrix(1 0 0 1 913.112 3815)">00:21</text></g><g clip-path="url(#clip14)"><text fill="#595959" font-family="Calibri,Calibri_MSFontService,sans-serif" font-weight="400" font-size="41" transform="matrix(1 0 0 1 913.112 3752)">00:28</text></g><g clip-path="url(#clip15)"><text fill="#595959" font-family="Calibri,Calibri_MSFontService,sans-serif" font-weight="400" font-size="41" transform="matrix(1 0 0 1 913.112 3689)">00:36</text></g><g clip-path="url(#clip16)"><text fill="#595959" font-family="Calibri,Calibri_MSFontService,sans-serif" font-weight="400" font-size="41" transform="matrix(1 0 0 1 913.112 3626)">00:43</text></g><g clip-path="url(#clip17)"><text fill="#595959" font-family="Calibri,Calibri_MSFontService,sans-serif" font-weight="400" font-size="41" transform="matrix(1 0 0 1 913.112 3563)">00:50</text></g><g clip-path="url(#clip18)"><text fill="#595959" font-family="Calibri,Calibri_MSFontService,sans-serif" font-weight="400" font-size="41" transform="matrix(1 0 0 1 913.112 3500)">00:57</text></g><g clip-path="url(#clip19)"><text fill="#595959" font-family="Calibri,Calibri_MSFontService,sans-serif" font-weight="400" font-size="41" transform="matrix(1 0 0 1 913.112 3438)">01:04</text></g><g clip-path="url(#clip20)"><text fill="#595959" font-family="Calibri,Calibri_MSFontService,sans-serif" font-weight="400" font-size="41" transform="matrix(1 0 0 1 913.112 3375)">01:12</text></g><g clip-path="url(#clip21)"><text fill="#595959" font-family="Calibri,Calibri_MSFontService,sans-serif" font-weight="400" font-size="41" transform="matrix(1 0 0 1 1114.77 4057)">5</text></g><g clip-path="url(#clip22)"><text fill="#595959" font-family="Calibri,Calibri_MSFontService,sans-serif" font-weight="400" font-size="41" transform="matrix(1 0 0 1 1273.16 4057)">6</text></g><g clip-path="url(#clip23)"><text fill="#595959" font-family="Calibri,Calibri_MSFontService,sans-serif" font-weight="400" font-size="41" transform="matrix(1 0 0 1 1431.54 4057)">7</text></g><g clip-path="url(#clip24)"><text fill="#595959" font-family="Calibri,Calibri_MSFontService,sans-serif" font-weight="400" font-size="41" transform="matrix(1 0 0 1 1589.93 4057)">8</text></g><g clip-path="url(#clip25)"><text fill="#595959" font-family="Calibri,Calibri_MSFontService,sans-serif" font-weight="400" font-size="41" transform="matrix(1 0 0 1 1906.7 4057)">1</text></g><g clip-path="url(#clip26)"><text fill="#595959" font-family="Calibri,Calibri_MSFontService,sans-serif" font-weight="400" font-size="41" transform="matrix(1 0 0 1 2065.09 4057)">2</text></g><g clip-path="url(#clip27)"><text fill="#595959" font-family="Calibri,Calibri_MSFontService,sans-serif" font-weight="400" font-size="41" transform="matrix(1 0 0 1 2223.48 4057)">3</text></g><g clip-path="url(#clip28)"><text fill="#595959" font-family="Calibri,Calibri_MSFontService,sans-serif" font-weight="400" font-size="41" transform="matrix(1 0 0 1 2381.87 4057)">4</text></g><g clip-path="url(#clip29)"><text fill="#595959" font-family="Calibri,Calibri_MSFontService,sans-serif" font-weight="400" font-size="41" transform="matrix(1 0 0 1 1401.17 4137)">With</text></g><g clip-path="url(#clip30)"><text fill="#595959" font-family="Calibri,Calibri_MSFontService,sans-serif" font-weight="400" font-size="41" transform="matrix(1 0 0 1 2085.29 4137)">Without</text></g><g clip-path="url(#clip31)"><text fill="#595959" font-family="Calibri,Calibri_MSFontService,sans-serif" font-weight="400" font-size="64" transform="matrix(1 0 0 1 1127.61 3289)">Task 4 </text></g><g clip-path="url(#clip32)"><text fill="#595959" font-family="Calibri,Calibri_MSFontService,sans-serif" font-weight="400" font-size="64" transform="matrix(1 0 0 1 1300.38 3289)">-</text></g><g clip-path="url(#clip33)"><text fill="#595959" font-family="Calibri,Calibri_MSFontService,sans-serif" font-weight="400" font-size="64" transform="matrix(1 0 0 1 1334.52 3289)">Sensitive emails recieved by address </text></g><rect x="883.5" y="3193.5" width="1639" height="982" stroke="#D9D9D9" stroke-width="3.4375" stroke-linejoin="round" stroke-miterlimit="10" fill="none"/></g></svg>