<svg width="1650" height="1000" xmlns="http://www.w3.org/2000/svg" xmlns:xlink="http://www.w3.org/1999/xlink" xml:space="preserve" overflow="hidden"><defs><clipPath id="clip0"><rect x="1308" y="1832" width="1650" height="1000"/></clipPath><clipPath id="clip1"><rect x="1309" y="1832" width="1646" height="998"/></clipPath><clipPath id="clip2"><rect x="1472" y="2002" width="1436" height="648"/></clipPath><clipPath id="clip3"><rect x="1472" y="2002" width="1436" height="648"/></clipPath><clipPath id="clip4"><rect x="1472" y="2002" width="1436" height="648"/></clipPath><clipPath id="clip5"><rect x="1472" y="2002" width="1436" height="648"/></clipPath><clipPath id="clip6"><rect x="1472" y="2002" width="1436" height="648"/></clipPath><clipPath id="clip7"><rect x="1309" y="1832" width="1646" height="998"/></clipPath><clipPath id="clip8"><rect x="1309" y="1832" width="1646" height="998"/></clipPath><clipPath id="clip9"><rect x="1309" y="1832" width="1646" height="998"/></clipPath><clipPath id="clip10"><rect x="1309" y="1832" width="1646" height="998"/></clipPath><clipPath id="clip11"><rect x="1309" y="1832" width="1646" height="998"/></clipPath><clipPath id="clip12"><rect x="1309" y="1832" width="1646" height="998"/></clipPath><clipPath id="clip13"><rect x="1309" y="1832" width="1646" height="998"/></clipPath><clipPath id="clip14"><rect x="1309" y="1832" width="1646" height="998"/></clipPath><clipPath id="clip15"><rect x="1309" y="1832" width="1646" height="998"/></clipPath><clipPath id="clip16"><rect x="1309" y="1832" width="1646" height="998"/></clipPath><clipPath id="clip17"><rect x="1309" y="1832" width="1646" height="998"/></clipPath><clipPath id="clip18"><rect x="1309" y="1832" width="1646" height="998"/></clipPath><clipPath id="clip19"><rect x="1309" y="1832" width="1646" height="998"/></clipPath><clipPath id="clip20"><rect x="1309" y="1832" width="1646" height="998"/></clipPath><clipPath id="clip21"><rect x="1309" y="1832" width="1646" height="998"/></clipPath><clipPath id="clip22"><rect x="1309" y="1832" width="1646" height="998"/></clipPath><clipPath id="clip23"><rect x="1309" y="1832" width="1646" height="998"/></clipPath><clipPath id="clip24"><rect x="1309" y="1832" width="1646" height="998"/></clipPath><clipPath id="clip25"><rect x="1309" y="1832" width="1646" height="998"/></clipPath><clipPath id="clip26"><rect x="1309" y="1832" width="1646" height="998"/></clipPath><clipPath id="clip27"><rect x="1309" y="1832" width="1646" height="998"/></clipPath><clipPath id="clip28"><rect x="1309" y="1832" width="1646" height="998"/></clipPath></defs><g clip-path="url(#clip0)" transform="translate(-1308 -1832)"><rect x="1309" y="1833" width="1647" height="997" fill="#FFFFFF"/><g clip-path="url(#clip1)"><path d="M1472.5 2518.58 2905.5 2518.58M1472.5 2389.58 2905.5 2389.58M1472.5 2260.57 2905.5 2260.57M1472.5 2131.57 2905.5 2131.57M1472.5 2002.5 2905.5 2002.5" stroke="#D9D9D9" stroke-width="3.4375" stroke-linejoin="round" stroke-miterlimit="10" fill="none"/></g><g clip-path="url(#clip2)"><rect x="2323" y="2298" width="49.9998" height="349" fill="#ED7D31"/></g><g clip-path="url(#clip3)"><rect x="2482" y="2173" width="50.0002" height="474" fill="#ED7D31"/></g><g clip-path="url(#clip4)"><rect x="2642" y="2090" width="49.9998" height="557" fill="#ED7D31"/></g><g clip-path="url(#clip5)"><rect x="2801" y="2285" width="50.0002" height="362" fill="#ED7D31"/></g><g clip-path="url(#clip6)"><path d="M1527.05 2532.08 1577.05 2532.08 1577.05 2647 1527.05 2647ZM1686.06 2409.08 1736.06 2409.08 1736.06 2647 1686.06 2647ZM1845.06 2584.08 1895.06 2584.08 1895.06 2647 1845.06 2647ZM2004.07 2518.08 2054.07 2518.08 2054.07 2647 2004.07 2647Z" fill="#4472C4"/></g><g clip-path="url(#clip7)"><path d="M1472.5 2647.5 2905.5 2647.5" stroke="#D9D9D9" stroke-width="3.4375" stroke-linejoin="round" stroke-miterlimit="10" fill="none" fill-rule="evenodd"/></g><g clip-path="url(#clip8)"><path d="M1472.5 2647.5 1472.5 2727.5M2268.57 2647.5 2268.57 2727.5M2905.5 2647.5 2905.5 2727.5" stroke="#D9D9D9" stroke-width="3.4375" stroke-linejoin="round" stroke-miterlimit="10" fill="none"/></g><g clip-path="url(#clip9)"><path d="M1472.5 2727.5 1472.5 2807.5M2268.57 2727.5 2268.57 2807.5M2905.5 2727.5 2905.5 2807.5" stroke="#D9D9D9" stroke-width="3.4375" stroke-linejoin="round" stroke-miterlimit="10" fill="none"/></g><g clip-path="url(#clip10)"><text fill="#595959" font-family="Calibri,Calibri_MSFontService,sans-serif" font-weight="400" font-size="41" transform="matrix(1 0 0 1 1339.12 2659)">00:00</text></g><g clip-path="url(#clip11)"><text fill="#595959" font-family="Calibri,Calibri_MSFontService,sans-serif" font-weight="400" font-size="41" transform="matrix(1 0 0 1 1339.12 2530)">01:12</text></g><g clip-path="url(#clip12)"><text fill="#595959" font-family="Calibri,Calibri_MSFontService,sans-serif" font-weight="400" font-size="41" transform="matrix(1 0 0 1 1339.12 2401)">02:24</text></g><g clip-path="url(#clip13)"><text fill="#595959" font-family="Calibri,Calibri_MSFontService,sans-serif" font-weight="400" font-size="41" transform="matrix(1 0 0 1 1339.12 2272)">03:36</text></g><g clip-path="url(#clip14)"><text fill="#595959" font-family="Calibri,Calibri_MSFontService,sans-serif" font-weight="400" font-size="41" transform="matrix(1 0 0 1 1339.12 2143)">04:48</text></g><g clip-path="url(#clip15)"><text fill="#595959" font-family="Calibri,Calibri_MSFontService,sans-serif" font-weight="400" font-size="41" transform="matrix(1 0 0 1 1339.12 2014)">06:00</text></g><g clip-path="url(#clip16)"><text fill="#595959" font-family="Calibri,Calibri_MSFontService,sans-serif" font-weight="400" font-size="41" transform="matrix(1 0 0 1 1541.22 2712)">1</text></g><g clip-path="url(#clip17)"><text fill="#595959" font-family="Calibri,Calibri_MSFontService,sans-serif" font-weight="400" font-size="41" transform="matrix(1 0 0 1 1700.49 2712)">2</text></g><g clip-path="url(#clip18)"><text fill="#595959" font-family="Calibri,Calibri_MSFontService,sans-serif" font-weight="400" font-size="41" transform="matrix(1 0 0 1 1859.75 2712)">3</text></g><g clip-path="url(#clip19)"><text fill="#595959" font-family="Calibri,Calibri_MSFontService,sans-serif" font-weight="400" font-size="41" transform="matrix(1 0 0 1 2019.02 2712)">4</text></g><g clip-path="url(#clip20)"><text fill="#595959" font-family="Calibri,Calibri_MSFontService,sans-serif" font-weight="400" font-size="41" transform="matrix(1 0 0 1 2337.56 2712)">5</text></g><g clip-path="url(#clip21)"><text fill="#595959" font-family="Calibri,Calibri_MSFontService,sans-serif" font-weight="400" font-size="41" transform="matrix(1 0 0 1 2496.82 2712)">6</text></g><g clip-path="url(#clip22)"><text fill="#595959" font-family="Calibri,Calibri_MSFontService,sans-serif" font-weight="400" font-size="41" transform="matrix(1 0 0 1 2656.09 2712)">7</text></g><g clip-path="url(#clip23)"><text fill="#595959" font-family="Calibri,Calibri_MSFontService,sans-serif" font-weight="400" font-size="41" transform="matrix(1 0 0 1 2815.36 2712)">8</text></g><g clip-path="url(#clip24)"><text fill="#595959" font-family="Calibri,Calibri_MSFontService,sans-serif" font-weight="400" font-size="41" transform="matrix(1 0 0 1 1829.38 2792)">With</text></g><g clip-path="url(#clip25)"><text fill="#595959" font-family="Calibri,Calibri_MSFontService,sans-serif" font-weight="400" font-size="41" transform="matrix(1 0 0 1 2517.46 2792)">Without</text></g><g clip-path="url(#clip26)"><text fill="#595959" font-family="Calibri,Calibri_MSFontService,sans-serif" font-weight="400" font-size="64" transform="matrix(1 0 0 1 1803.83 1928)">Task 1  </text></g><g clip-path="url(#clip27)"><text fill="#595959" font-family="Calibri,Calibri_MSFontService,sans-serif" font-weight="400" font-size="64" transform="matrix(1 0 0 1 1991.11 1928)">-</text></g><g clip-path="url(#clip28)"><text fill="#595959" font-family="Calibri,Calibri_MSFontService,sans-serif" font-weight="400" font-size="64" transform="matrix(1 0 0 1 2025.25 1928)">Highlight feature</text></g><rect x="1309.5" y="1833.5" width="1647" height="997" stroke="#D9D9D9" stroke-width="3.4375" stroke-linejoin="round" stroke-miterlimit="10" fill="none"/></g></svg>