<svg width="1653" height="1006" xmlns="http://www.w3.org/2000/svg" xmlns:xlink="http://www.w3.org/1999/xlink" xml:space="preserve" overflow="hidden"><defs><clipPath id="clip0"><rect x="3120" y="3211" width="1653" height="1006"/></clipPath><clipPath id="clip1"><rect x="3120" y="3212" width="1650" height="1002"/></clipPath><clipPath id="clip2"><rect x="3283" y="3382" width="1440" height="653"/></clipPath><clipPath id="clip3"><rect x="3283" y="3382" width="1440" height="653"/></clipPath><clipPath id="clip4"><rect x="3283" y="3382" width="1440" height="653"/></clipPath><clipPath id="clip5"><rect x="3283" y="3382" width="1440" height="653"/></clipPath><clipPath id="clip6"><rect x="3283" y="3382" width="1440" height="653"/></clipPath><clipPath id="clip7"><rect x="3120" y="3212" width="1650" height="1002"/></clipPath><clipPath id="clip8"><rect x="3120" y="3212" width="1650" height="1002"/></clipPath><clipPath id="clip9"><rect x="3120" y="3212" width="1650" height="1002"/></clipPath><clipPath id="clip10"><rect x="3120" y="3212" width="1650" height="1002"/></clipPath><clipPath id="clip11"><rect x="3120" y="3212" width="1650" height="1002"/></clipPath><clipPath id="clip12"><rect x="3120" y="3212" width="1650" height="1002"/></clipPath><clipPath id="clip13"><rect x="3120" y="3212" width="1650" height="1002"/></clipPath><clipPath id="clip14"><rect x="3120" y="3212" width="1650" height="1002"/></clipPath><clipPath id="clip15"><rect x="3120" y="3212" width="1650" height="1002"/></clipPath><clipPath id="clip16"><rect x="3120" y="3212" width="1650" height="1002"/></clipPath><clipPath id="clip17"><rect x="3120" y="3212" width="1650" height="1002"/></clipPath><clipPath id="clip18"><rect x="3120" y="3212" width="1650" height="1002"/></clipPath><clipPath id="clip19"><rect x="3120" y="3212" width="1650" height="1002"/></clipPath><clipPath id="clip20"><rect x="3120" y="3212" width="1650" height="1002"/></clipPath><clipPath id="clip21"><rect x="3120" y="3212" width="1650" height="1002"/></clipPath><clipPath id="clip22"><rect x="3120" y="3212" width="1650" height="1002"/></clipPath><clipPath id="clip23"><rect x="3120" y="3212" width="1650" height="1002"/></clipPath><clipPath id="clip24"><rect x="3120" y="3212" width="1650" height="1002"/></clipPath><clipPath id="clip25"><rect x="3120" y="3212" width="1650" height="1002"/></clipPath><clipPath id="clip26"><rect x="3120" y="3212" width="1650" height="1002"/></clipPath><clipPath id="clip27"><rect x="3120" y="3212" width="1650" height="1002"/></clipPath><clipPath id="clip28"><rect x="3120" y="3212" width="1650" height="1002"/></clipPath><clipPath id="clip29"><rect x="3120" y="3212" width="1650" height="1002"/></clipPath><clipPath id="clip30"><rect x="3120" y="3212" width="1650" height="1002"/></clipPath><clipPath id="clip31"><rect x="3120" y="3212" width="1650" height="1002"/></clipPath><clipPath id="clip32"><rect x="3120" y="3212" width="1650" height="1002"/></clipPath><clipPath id="clip33"><rect x="3120" y="3212" width="1650" height="1002"/></clipPath></defs><g clip-path="url(#clip0)" transform="translate(-3120 -3211)"><rect x="3121" y="3212" width="1650" height="1003" fill="#FFFFFF"/><g clip-path="url(#clip1)"><path d="M3283.5 3966.63 4720.5 3966.63M3283.5 3901.63 4720.5 3901.63M3283.5 3836.63 4720.5 3836.63M3283.5 3771.62 4720.5 3771.62M3283.5 3707.62 4720.5 3707.62M3283.5 3642.62 4720.5 3642.62M3283.5 3577.62 4720.5 3577.62M3283.5 3512.62 4720.5 3512.62M3283.5 3447.61 4720.5 3447.61M3283.5 3382.5 4720.5 3382.5" stroke="#D9D9D9" stroke-width="3.4375" stroke-linejoin="round" stroke-miterlimit="10" fill="none"/></g><g clip-path="url(#clip2)"><rect x="4136" y="3644" width="50" height="388" fill="#ED7D31"/></g><g clip-path="url(#clip3)"><rect x="4296" y="3446" width="50" height="586" fill="#ED7D31"/></g><g clip-path="url(#clip4)"><rect x="4456" y="3518" width="50" height="514" fill="#ED7D31"/></g><g clip-path="url(#clip5)"><rect x="4615" y="3815" width="50" height="217" fill="#ED7D31"/></g><g clip-path="url(#clip6)"><path d="M3338.11 3788.12 3388.11 3788.12 3388.11 4032 3338.11 4032ZM3498.11 3878.13 3548.12 3878.13 3548.12 4032 3498.11 4032ZM3657.12 3960.13 3707.12 3960.13 3707.12 4032 3657.12 4032ZM3817.13 3824.13 3867.13 3824.13 3867.13 4032 3817.13 4032Z" fill="#4472C4"/></g><g clip-path="url(#clip7)"><path d="M3283.5 4031.5 4720.5 4031.5" stroke="#D9D9D9" stroke-width="3.4375" stroke-linejoin="round" stroke-miterlimit="10" fill="none" fill-rule="evenodd"/></g><g clip-path="url(#clip8)"><path d="M3283.5 4031.5 3283.5 4111.5M4081.63 4031.5 4081.63 4111.5M4720.5 4031.5 4720.5 4111.5" stroke="#D9D9D9" stroke-width="3.4375" stroke-linejoin="round" stroke-miterlimit="10" fill="none"/></g><g clip-path="url(#clip9)"><path d="M3283.5 4111.5 3283.5 4191.5M4081.63 4111.5 4081.63 4191.5M4720.5 4111.5 4720.5 4191.5" stroke="#D9D9D9" stroke-width="3.4375" stroke-linejoin="round" stroke-miterlimit="10" fill="none"/></g><g clip-path="url(#clip10)"><text fill="#595959" font-family="Calibri,Calibri_MSFontService,sans-serif" font-weight="400" font-size="41" transform="matrix(1 0 0 1 3150.44 4043)">00:00</text></g><g clip-path="url(#clip11)"><text fill="#595959" font-family="Calibri,Calibri_MSFontService,sans-serif" font-weight="400" font-size="41" transform="matrix(1 0 0 1 3150.44 3979)">00:07</text></g><g clip-path="url(#clip12)"><text fill="#595959" font-family="Calibri,Calibri_MSFontService,sans-serif" font-weight="400" font-size="41" transform="matrix(1 0 0 1 3150.44 3914)">00:14</text></g><g clip-path="url(#clip13)"><text fill="#595959" font-family="Calibri,Calibri_MSFontService,sans-serif" font-weight="400" font-size="41" transform="matrix(1 0 0 1 3150.44 3849)">00:21</text></g><g clip-path="url(#clip14)"><text fill="#595959" font-family="Calibri,Calibri_MSFontService,sans-serif" font-weight="400" font-size="41" transform="matrix(1 0 0 1 3150.44 3784)">00:28</text></g><g clip-path="url(#clip15)"><text fill="#595959" font-family="Calibri,Calibri_MSFontService,sans-serif" font-weight="400" font-size="41" transform="matrix(1 0 0 1 3150.44 3719)">00:36</text></g><g clip-path="url(#clip16)"><text fill="#595959" font-family="Calibri,Calibri_MSFontService,sans-serif" font-weight="400" font-size="41" transform="matrix(1 0 0 1 3150.44 3654)">00:43</text></g><g clip-path="url(#clip17)"><text fill="#595959" font-family="Calibri,Calibri_MSFontService,sans-serif" font-weight="400" font-size="41" transform="matrix(1 0 0 1 3150.44 3589)">00:50</text></g><g clip-path="url(#clip18)"><text fill="#595959" font-family="Calibri,Calibri_MSFontService,sans-serif" font-weight="400" font-size="41" transform="matrix(1 0 0 1 3150.44 3524)">00:57</text></g><g clip-path="url(#clip19)"><text fill="#595959" font-family="Calibri,Calibri_MSFontService,sans-serif" font-weight="400" font-size="41" transform="matrix(1 0 0 1 3150.44 3459)">01:04</text></g><g clip-path="url(#clip20)"><text fill="#595959" font-family="Calibri,Calibri_MSFontService,sans-serif" font-weight="400" font-size="41" transform="matrix(1 0 0 1 3150.44 3394)">01:12</text></g><g clip-path="url(#clip21)"><text fill="#595959" font-family="Calibri,Calibri_MSFontService,sans-serif" font-weight="400" font-size="41" transform="matrix(1 0 0 1 3352.73 4097)">5</text></g><g clip-path="url(#clip22)"><text fill="#595959" font-family="Calibri,Calibri_MSFontService,sans-serif" font-weight="400" font-size="41" transform="matrix(1 0 0 1 3512.39 4097)">6</text></g><g clip-path="url(#clip23)"><text fill="#595959" font-family="Calibri,Calibri_MSFontService,sans-serif" font-weight="400" font-size="41" transform="matrix(1 0 0 1 3672.04 4097)">7</text></g><g clip-path="url(#clip24)"><text fill="#595959" font-family="Calibri,Calibri_MSFontService,sans-serif" font-weight="400" font-size="41" transform="matrix(1 0 0 1 3831.69 4097)">8</text></g><g clip-path="url(#clip25)"><text fill="#595959" font-family="Calibri,Calibri_MSFontService,sans-serif" font-weight="400" font-size="41" transform="matrix(1 0 0 1 4151 4097)">1</text></g><g clip-path="url(#clip26)"><text fill="#595959" font-family="Calibri,Calibri_MSFontService,sans-serif" font-weight="400" font-size="41" transform="matrix(1 0 0 1 4310.65 4097)">2</text></g><g clip-path="url(#clip27)"><text fill="#595959" font-family="Calibri,Calibri_MSFontService,sans-serif" font-weight="400" font-size="41" transform="matrix(1 0 0 1 4470.31 4097)">3</text></g><g clip-path="url(#clip28)"><text fill="#595959" font-family="Calibri,Calibri_MSFontService,sans-serif" font-weight="400" font-size="41" transform="matrix(1 0 0 1 4629.96 4097)">4</text></g><g clip-path="url(#clip29)"><text fill="#595959" font-family="Calibri,Calibri_MSFontService,sans-serif" font-weight="400" font-size="41" transform="matrix(1 0 0 1 3641.66 4177)">With</text></g><g clip-path="url(#clip30)"><text fill="#595959" font-family="Calibri,Calibri_MSFontService,sans-serif" font-weight="400" font-size="41" transform="matrix(1 0 0 1 4331.48 4177)">Without</text></g><g clip-path="url(#clip31)"><text fill="#595959" font-family="Calibri,Calibri_MSFontService,sans-serif" font-weight="400" font-size="64" transform="matrix(1 0 0 1 3311.1 3308)">Task 5 </text></g><g clip-path="url(#clip32)"><text fill="#595959" font-family="Calibri,Calibri_MSFontService,sans-serif" font-weight="400" font-size="64" transform="matrix(1 0 0 1 3483.87 3308)">-</text></g><g clip-path="url(#clip33)"><text fill="#595959" font-family="Calibri,Calibri_MSFontService,sans-serif" font-weight="400" font-size="64" transform="matrix(1 0 0 1 3518.02 3308)">Non sensitive emails recieved by address</text></g><rect x="3121.5" y="3212.5" width="1650" height="1003" stroke="#D9D9D9" stroke-width="3.4375" stroke-linejoin="round" stroke-miterlimit="10" fill="none"/></g></svg>