<svg width="1651" height="995" xmlns="http://www.w3.org/2000/svg" xmlns:xlink="http://www.w3.org/1999/xlink" xml:space="preserve" overflow="hidden"><defs><clipPath id="clip0"><rect x="2635" y="1712" width="1651" height="995"/></clipPath><clipPath id="clip1"><rect x="2635" y="1712" width="1648" height="992"/></clipPath><clipPath id="clip2"><rect x="2798" y="1882" width="1439" height="643"/></clipPath><clipPath id="clip3"><rect x="2798" y="1882" width="1439" height="643"/></clipPath><clipPath id="clip4"><rect x="2798" y="1882" width="1439" height="643"/></clipPath><clipPath id="clip5"><rect x="2798" y="1882" width="1439" height="643"/></clipPath><clipPath id="clip6"><rect x="2798" y="1882" width="1439" height="643"/></clipPath><clipPath id="clip7"><rect x="2635" y="1712" width="1648" height="992"/></clipPath><clipPath id="clip8"><rect x="2635" y="1712" width="1648" height="992"/></clipPath><clipPath id="clip9"><rect x="2635" y="1712" width="1648" height="992"/></clipPath><clipPath id="clip10"><rect x="2635" y="1712" width="1648" height="992"/></clipPath><clipPath id="clip11"><rect x="2635" y="1712" width="1648" height="992"/></clipPath><clipPath id="clip12"><rect x="2635" y="1712" width="1648" height="992"/></clipPath><clipPath id="clip13"><rect x="2635" y="1712" width="1648" height="992"/></clipPath><clipPath id="clip14"><rect x="2635" y="1712" width="1648" height="992"/></clipPath><clipPath id="clip15"><rect x="2635" y="1712" width="1648" height="992"/></clipPath><clipPath id="clip16"><rect x="2635" y="1712" width="1648" height="992"/></clipPath><clipPath id="clip17"><rect x="2635" y="1712" width="1648" height="992"/></clipPath><clipPath id="clip18"><rect x="2635" y="1712" width="1648" height="992"/></clipPath><clipPath id="clip19"><rect x="2635" y="1712" width="1648" height="992"/></clipPath><clipPath id="clip20"><rect x="2635" y="1712" width="1648" height="992"/></clipPath><clipPath id="clip21"><rect x="2635" y="1712" width="1648" height="992"/></clipPath><clipPath id="clip22"><rect x="2635" y="1712" width="1648" height="992"/></clipPath><clipPath id="clip23"><rect x="2635" y="1712" width="1648" height="992"/></clipPath><clipPath id="clip24"><rect x="2635" y="1712" width="1648" height="992"/></clipPath><clipPath id="clip25"><rect x="2635" y="1712" width="1648" height="992"/></clipPath><clipPath id="clip26"><rect x="2635" y="1712" width="1648" height="992"/></clipPath><clipPath id="clip27"><rect x="2635" y="1712" width="1648" height="992"/></clipPath><clipPath id="clip28"><rect x="2635" y="1712" width="1648" height="992"/></clipPath></defs><g clip-path="url(#clip0)" transform="translate(-2635 -1712)"><rect x="2636" y="1713" width="1648" height="992" fill="#FFFFFF"/><g clip-path="url(#clip1)"><path d="M2798.5 2394.58 4233.5 2394.58M2798.5 2266.57 4233.5 2266.57M2798.5 2138.57 4233.5 2138.57M2798.5 2010.57 4233.5 2010.57M2798.5 1882.5 4233.5 1882.5" stroke="#D9D9D9" stroke-width="3.4375" stroke-linejoin="round" stroke-miterlimit="10" fill="none"/></g><g clip-path="url(#clip2)"><rect x="3651" y="2186" width="50.0002" height="336" fill="#ED7D31"/></g><g clip-path="url(#clip3)"><rect x="3810" y="2254" width="49.9998" height="268" fill="#ED7D31"/></g><g clip-path="url(#clip4)"><rect x="3969" y="2371" width="50.0002" height="151" fill="#ED7D31"/></g><g clip-path="url(#clip5)"><rect x="4129" y="2011" width="50" height="511" fill="#ED7D31"/></g><g clip-path="url(#clip6)"><path d="M2853.09 2470.08 2903.1 2470.08 2903.1 2522 2853.09 2522ZM3013.1 2396.08 3063.1 2396.08 3063.1 2522 3013.1 2522ZM3172.1 2469.08 3222.11 2469.08 3222.11 2522 3172.1 2522ZM3332.11 2501.08 3382.11 2501.08 3382.11 2522 3332.11 2522Z" fill="#4472C4"/></g><g clip-path="url(#clip7)"><path d="M2798.5 2521.5 4233.5 2521.5" stroke="#D9D9D9" stroke-width="3.4375" stroke-linejoin="round" stroke-miterlimit="10" fill="none" fill-rule="evenodd"/></g><g clip-path="url(#clip8)"><path d="M2798.5 2521.5 2798.5 2601.5M3595.62 2521.5 3595.62 2601.5M4233.5 2521.5 4233.5 2601.5" stroke="#D9D9D9" stroke-width="3.4375" stroke-linejoin="round" stroke-miterlimit="10" fill="none"/></g><g clip-path="url(#clip9)"><path d="M2798.5 2601.5 2798.5 2681.5M3595.62 2601.5 3595.62 2681.5M4233.5 2601.5 4233.5 2681.5" stroke="#D9D9D9" stroke-width="3.4375" stroke-linejoin="round" stroke-miterlimit="10" fill="none"/></g><g clip-path="url(#clip10)"><text fill="#595959" font-family="Calibri,Calibri_MSFontService,sans-serif" font-weight="400" font-size="41" transform="matrix(1 0 0 1 2665.76 2534)">00:00</text></g><g clip-path="url(#clip11)"><text fill="#595959" font-family="Calibri,Calibri_MSFontService,sans-serif" font-weight="400" font-size="41" transform="matrix(1 0 0 1 2665.76 2406)">01:12</text></g><g clip-path="url(#clip12)"><text fill="#595959" font-family="Calibri,Calibri_MSFontService,sans-serif" font-weight="400" font-size="41" transform="matrix(1 0 0 1 2665.76 2278)">02:24</text></g><g clip-path="url(#clip13)"><text fill="#595959" font-family="Calibri,Calibri_MSFontService,sans-serif" font-weight="400" font-size="41" transform="matrix(1 0 0 1 2665.76 2150)">03:36</text></g><g clip-path="url(#clip14)"><text fill="#595959" font-family="Calibri,Calibri_MSFontService,sans-serif" font-weight="400" font-size="41" transform="matrix(1 0 0 1 2665.76 2022)">04:48</text></g><g clip-path="url(#clip15)"><text fill="#595959" font-family="Calibri,Calibri_MSFontService,sans-serif" font-weight="400" font-size="41" transform="matrix(1 0 0 1 2665.76 1894)">06:00</text></g><g clip-path="url(#clip16)"><text fill="#595959" font-family="Calibri,Calibri_MSFontService,sans-serif" font-weight="400" font-size="41" transform="matrix(1 0 0 1 2867.94 2587)">1</text></g><g clip-path="url(#clip17)"><text fill="#595959" font-family="Calibri,Calibri_MSFontService,sans-serif" font-weight="400" font-size="41" transform="matrix(1 0 0 1 3027.37 2587)">2</text></g><g clip-path="url(#clip18)"><text fill="#595959" font-family="Calibri,Calibri_MSFontService,sans-serif" font-weight="400" font-size="41" transform="matrix(1 0 0 1 3186.8 2587)">3</text></g><g clip-path="url(#clip19)"><text fill="#595959" font-family="Calibri,Calibri_MSFontService,sans-serif" font-weight="400" font-size="41" transform="matrix(1 0 0 1 3346.24 2587)">4</text></g><g clip-path="url(#clip20)"><text fill="#595959" font-family="Calibri,Calibri_MSFontService,sans-serif" font-weight="400" font-size="41" transform="matrix(1 0 0 1 3665.1 2587)">5</text></g><g clip-path="url(#clip21)"><text fill="#595959" font-family="Calibri,Calibri_MSFontService,sans-serif" font-weight="400" font-size="41" transform="matrix(1 0 0 1 3824.53 2587)">6</text></g><g clip-path="url(#clip22)"><text fill="#595959" font-family="Calibri,Calibri_MSFontService,sans-serif" font-weight="400" font-size="41" transform="matrix(1 0 0 1 3983.97 2587)">7</text></g><g clip-path="url(#clip23)"><text fill="#595959" font-family="Calibri,Calibri_MSFontService,sans-serif" font-weight="400" font-size="41" transform="matrix(1 0 0 1 4143.4 2587)">8</text></g><g clip-path="url(#clip24)"><text fill="#595959" font-family="Calibri,Calibri_MSFontService,sans-serif" font-weight="400" font-size="41" transform="matrix(1 0 0 1 3156.43 2667)">With</text></g><g clip-path="url(#clip25)"><text fill="#595959" font-family="Calibri,Calibri_MSFontService,sans-serif" font-weight="400" font-size="41" transform="matrix(1 0 0 1 3845.25 2667)">Without</text></g><g clip-path="url(#clip26)"><text fill="#595959" font-family="Calibri,Calibri_MSFontService,sans-serif" font-weight="400" font-size="64" transform="matrix(1 0 0 1 3131.21 1808)">Task 2  </text></g><g clip-path="url(#clip27)"><text fill="#595959" font-family="Calibri,Calibri_MSFontService,sans-serif" font-weight="400" font-size="64" transform="matrix(1 0 0 1 3318.49 1808)">-</text></g><g clip-path="url(#clip28)"><text fill="#595959" font-family="Calibri,Calibri_MSFontService,sans-serif" font-weight="400" font-size="64" transform="matrix(1 0 0 1 3352.63 1808)">Highlight feature</text></g><rect x="2636.5" y="1713.5" width="1648" height="992" stroke="#D9D9D9" stroke-width="3.4375" stroke-linejoin="round" stroke-miterlimit="10" fill="none"/></g></svg>