<svg width="1656" height="1028" xmlns="http://www.w3.org/2000/svg" xmlns:xlink="http://www.w3.org/1999/xlink" xml:space="preserve" overflow="hidden"><defs><clipPath id="clip0"><rect x="915" y="4449" width="1656" height="1028"/></clipPath><clipPath id="clip1"><rect x="915" y="4450" width="1654" height="1025"/></clipPath><clipPath id="clip2"><rect x="1078" y="4620" width="1444" height="675"/></clipPath><clipPath id="clip3"><rect x="1078" y="4620" width="1444" height="675"/></clipPath><clipPath id="clip4"><rect x="1078" y="4620" width="1444" height="675"/></clipPath><clipPath id="clip5"><rect x="1078" y="4620" width="1444" height="675"/></clipPath><clipPath id="clip6"><rect x="1078" y="4620" width="1444" height="675"/></clipPath><clipPath id="clip7"><rect x="915" y="4450" width="1654" height="1025"/></clipPath><clipPath id="clip8"><rect x="915" y="4450" width="1654" height="1025"/></clipPath><clipPath id="clip9"><rect x="915" y="4450" width="1654" height="1025"/></clipPath><clipPath id="clip10"><rect x="915" y="4450" width="1654" height="1025"/></clipPath><clipPath id="clip11"><rect x="915" y="4450" width="1654" height="1025"/></clipPath><clipPath id="clip12"><rect x="915" y="4450" width="1654" height="1025"/></clipPath><clipPath id="clip13"><rect x="915" y="4450" width="1654" height="1025"/></clipPath><clipPath id="clip14"><rect x="915" y="4450" width="1654" height="1025"/></clipPath><clipPath id="clip15"><rect x="915" y="4450" width="1654" height="1025"/></clipPath><clipPath id="clip16"><rect x="915" y="4450" width="1654" height="1025"/></clipPath><clipPath id="clip17"><rect x="915" y="4450" width="1654" height="1025"/></clipPath><clipPath id="clip18"><rect x="915" y="4450" width="1654" height="1025"/></clipPath><clipPath id="clip19"><rect x="915" y="4450" width="1654" height="1025"/></clipPath><clipPath id="clip20"><rect x="915" y="4450" width="1654" height="1025"/></clipPath><clipPath id="clip21"><rect x="915" y="4450" width="1654" height="1025"/></clipPath><clipPath id="clip22"><rect x="915" y="4450" width="1654" height="1025"/></clipPath><clipPath id="clip23"><rect x="915" y="4450" width="1654" height="1025"/></clipPath><clipPath id="clip24"><rect x="915" y="4450" width="1654" height="1025"/></clipPath><clipPath id="clip25"><rect x="915" y="4450" width="1654" height="1025"/></clipPath><clipPath id="clip26"><rect x="915" y="4450" width="1654" height="1025"/></clipPath><clipPath id="clip27"><rect x="915" y="4450" width="1654" height="1025"/></clipPath><clipPath id="clip28"><rect x="915" y="4450" width="1654" height="1025"/></clipPath><clipPath id="clip29"><rect x="915" y="4450" width="1654" height="1025"/></clipPath><clipPath id="clip30"><rect x="915" y="4450" width="1654" height="1025"/></clipPath><clipPath id="clip31"><rect x="915" y="4450" width="1654" height="1025"/></clipPath></defs><g clip-path="url(#clip0)" transform="translate(-915 -4449)"><rect x="916" y="4450" width="1653" height="1025" fill="#FFFFFF"/><g clip-path="url(#clip1)"><path d="M1078.5 5207.67 2518.5 5207.67M1078.5 5123.67 2518.5 5123.67M1078.5 5039.67 2518.5 5039.67M1078.5 4955.66 2518.5 4955.66M1078.5 4871.66 2518.5 4871.66M1078.5 4787.66 2518.5 4787.66M1078.5 4703.65 2518.5 4703.65M1078.5 4620.5 2518.5 4620.5" stroke="#D9D9D9" stroke-width="3.4375" stroke-linejoin="round" stroke-miterlimit="10" fill="none"/></g><g clip-path="url(#clip2)"><rect x="1934" y="4965" width="50.0002" height="327" fill="#ED7D31"/></g><g clip-path="url(#clip3)"><rect x="2094" y="4703" width="49.9998" height="589" fill="#ED7D31"/></g><g clip-path="url(#clip4)"><rect x="2254" y="4890" width="50.0002" height="402" fill="#ED7D31"/></g><g clip-path="url(#clip5)"><rect x="2414" y="4989" width="49.9998" height="303" fill="#ED7D31"/></g><g clip-path="url(#clip6)"><path d="M1133.04 4942.16 1184.04 4942.16 1184.04 5292 1133.04 5292ZM1293.04 4936.16 1344.04 4936.16 1344.04 5292 1293.04 5292ZM1453.05 5018.16 1504.05 5018.16 1504.05 5292 1453.05 5292ZM1613.05 5029.17 1664.05 5029.17 1664.05 5292 1613.05 5292Z" fill="#4472C4"/></g><g clip-path="url(#clip7)"><path d="M1078.5 5292.5 2518.5 5292.5" stroke="#D9D9D9" stroke-width="3.4375" stroke-linejoin="round" stroke-miterlimit="10" fill="none" fill-rule="evenodd"/></g><g clip-path="url(#clip8)"><path d="M1078.5 5292.5 1078.5 5372.5M1878.56 5292.5 1878.56 5372.5M2518.5 5292.5 2518.5 5372.5" stroke="#D9D9D9" stroke-width="3.4375" stroke-linejoin="round" stroke-miterlimit="10" fill="none"/></g><g clip-path="url(#clip9)"><path d="M1078.5 5372.5 1078.5 5452.5M1878.56 5372.5 1878.56 5452.5M2518.5 5372.5 2518.5 5452.5" stroke="#D9D9D9" stroke-width="3.4375" stroke-linejoin="round" stroke-miterlimit="10" fill="none"/></g><g clip-path="url(#clip10)"><text fill="#595959" font-family="Calibri,Calibri_MSFontService,sans-serif" font-weight="400" font-size="41" transform="matrix(1 0 0 1 945.676 5304)">00:00</text></g><g clip-path="url(#clip11)"><text fill="#595959" font-family="Calibri,Calibri_MSFontService,sans-serif" font-weight="400" font-size="41" transform="matrix(1 0 0 1 945.676 5220)">00:14</text></g><g clip-path="url(#clip12)"><text fill="#595959" font-family="Calibri,Calibri_MSFontService,sans-serif" font-weight="400" font-size="41" transform="matrix(1 0 0 1 945.676 5136)">00:28</text></g><g clip-path="url(#clip13)"><text fill="#595959" font-family="Calibri,Calibri_MSFontService,sans-serif" font-weight="400" font-size="41" transform="matrix(1 0 0 1 945.676 5052)">00:43</text></g><g clip-path="url(#clip14)"><text fill="#595959" font-family="Calibri,Calibri_MSFontService,sans-serif" font-weight="400" font-size="41" transform="matrix(1 0 0 1 945.676 4968)">00:57</text></g><g clip-path="url(#clip15)"><text fill="#595959" font-family="Calibri,Calibri_MSFontService,sans-serif" font-weight="400" font-size="41" transform="matrix(1 0 0 1 945.676 4884)">01:12</text></g><g clip-path="url(#clip16)"><text fill="#595959" font-family="Calibri,Calibri_MSFontService,sans-serif" font-weight="400" font-size="41" transform="matrix(1 0 0 1 945.676 4800)">01:26</text></g><g clip-path="url(#clip17)"><text fill="#595959" font-family="Calibri,Calibri_MSFontService,sans-serif" font-weight="400" font-size="41" transform="matrix(1 0 0 1 945.676 4716)">01:40</text></g><g clip-path="url(#clip18)"><text fill="#595959" font-family="Calibri,Calibri_MSFontService,sans-serif" font-weight="400" font-size="41" transform="matrix(1 0 0 1 945.676 4632)">01:55</text></g><g clip-path="url(#clip19)"><text fill="#595959" font-family="Calibri,Calibri_MSFontService,sans-serif" font-weight="400" font-size="41" transform="matrix(1 0 0 1 1148.14 5357)">1</text></g><g clip-path="url(#clip20)"><text fill="#595959" font-family="Calibri,Calibri_MSFontService,sans-serif" font-weight="400" font-size="41" transform="matrix(1 0 0 1 1308.15 5357)">2</text></g><g clip-path="url(#clip21)"><text fill="#595959" font-family="Calibri,Calibri_MSFontService,sans-serif" font-weight="400" font-size="41" transform="matrix(1 0 0 1 1468.16 5357)">3</text></g><g clip-path="url(#clip22)"><text fill="#595959" font-family="Calibri,Calibri_MSFontService,sans-serif" font-weight="400" font-size="41" transform="matrix(1 0 0 1 1628.17 5357)">4</text></g><g clip-path="url(#clip23)"><text fill="#595959" font-family="Calibri,Calibri_MSFontService,sans-serif" font-weight="400" font-size="41" transform="matrix(1 0 0 1 1948.18 5357)">5</text></g><g clip-path="url(#clip24)"><text fill="#595959" font-family="Calibri,Calibri_MSFontService,sans-serif" font-weight="400" font-size="41" transform="matrix(1 0 0 1 2108.19 5357)">6</text></g><g clip-path="url(#clip25)"><text fill="#595959" font-family="Calibri,Calibri_MSFontService,sans-serif" font-weight="400" font-size="41" transform="matrix(1 0 0 1 2268.2 5357)">7</text></g><g clip-path="url(#clip26)"><text fill="#595959" font-family="Calibri,Calibri_MSFontService,sans-serif" font-weight="400" font-size="41" transform="matrix(1 0 0 1 2428.21 5357)">8</text></g><g clip-path="url(#clip27)"><text fill="#595959" font-family="Calibri,Calibri_MSFontService,sans-serif" font-weight="400" font-size="41" transform="matrix(1 0 0 1 1437.78 5437)">With</text></g><g clip-path="url(#clip28)"><text fill="#595959" font-family="Calibri,Calibri_MSFontService,sans-serif" font-weight="400" font-size="41" transform="matrix(1 0 0 1 2129.2 5437)">Without</text></g><g clip-path="url(#clip29)"><text fill="#595959" font-family="Calibri,Calibri_MSFontService,sans-serif" font-weight="400" font-size="64" transform="matrix(1 0 0 1 1434.85 4545)">Task 6 </text></g><g clip-path="url(#clip30)"><text fill="#595959" font-family="Calibri,Calibri_MSFontService,sans-serif" font-weight="400" font-size="64" transform="matrix(1 0 0 1 1607.62 4545)">-</text></g><g clip-path="url(#clip31)"><text fill="#595959" font-family="Calibri,Calibri_MSFontService,sans-serif" font-weight="400" font-size="64" transform="matrix(1 0 0 1 1641.76 4545)">Topic modelling </text></g><rect x="916.5" y="4450.5" width="1653" height="1025" stroke="#D9D9D9" stroke-width="3.4375" stroke-linejoin="round" stroke-miterlimit="10" fill="none"/></g></svg>