<svg width="1655" height="1013" xmlns="http://www.w3.org/2000/svg" xmlns:xlink="http://www.w3.org/1999/xlink" xml:space="preserve" overflow="hidden"><defs><clipPath id="clip0"><rect x="4771" y="1743" width="1655" height="1013"/></clipPath><clipPath id="clip1"><rect x="4771" y="1744" width="1652" height="1009"/></clipPath><clipPath id="clip2"><rect x="4934" y="1914" width="1442" height="660"/></clipPath><clipPath id="clip3"><rect x="4934" y="1914" width="1442" height="660"/></clipPath><clipPath id="clip4"><rect x="4934" y="1914" width="1442" height="660"/></clipPath><clipPath id="clip5"><rect x="4934" y="1914" width="1442" height="660"/></clipPath><clipPath id="clip6"><rect x="4934" y="1914" width="1442" height="660"/></clipPath><clipPath id="clip7"><rect x="4771" y="1744" width="1652" height="1009"/></clipPath><clipPath id="clip8"><rect x="4771" y="1744" width="1652" height="1009"/></clipPath><clipPath id="clip9"><rect x="4771" y="1744" width="1652" height="1009"/></clipPath><clipPath id="clip10"><rect x="4771" y="1744" width="1652" height="1009"/></clipPath><clipPath id="clip11"><rect x="4771" y="1744" width="1652" height="1009"/></clipPath><clipPath id="clip12"><rect x="4771" y="1744" width="1652" height="1009"/></clipPath><clipPath id="clip13"><rect x="4771" y="1744" width="1652" height="1009"/></clipPath><clipPath id="clip14"><rect x="4771" y="1744" width="1652" height="1009"/></clipPath><clipPath id="clip15"><rect x="4771" y="1744" width="1652" height="1009"/></clipPath><clipPath id="clip16"><rect x="4771" y="1744" width="1652" height="1009"/></clipPath><clipPath id="clip17"><rect x="4771" y="1744" width="1652" height="1009"/></clipPath><clipPath id="clip18"><rect x="4771" y="1744" width="1652" height="1009"/></clipPath><clipPath id="clip19"><rect x="4771" y="1744" width="1652" height="1009"/></clipPath><clipPath id="clip20"><rect x="4771" y="1744" width="1652" height="1009"/></clipPath><clipPath id="clip21"><rect x="4771" y="1744" width="1652" height="1009"/></clipPath><clipPath id="clip22"><rect x="4771" y="1744" width="1652" height="1009"/></clipPath><clipPath id="clip23"><rect x="4771" y="1744" width="1652" height="1009"/></clipPath><clipPath id="clip24"><rect x="4771" y="1744" width="1652" height="1009"/></clipPath><clipPath id="clip25"><rect x="4771" y="1744" width="1652" height="1009"/></clipPath><clipPath id="clip26"><rect x="4771" y="1744" width="1652" height="1009"/></clipPath><clipPath id="clip27"><rect x="4771" y="1744" width="1652" height="1009"/></clipPath><clipPath id="clip28"><rect x="4771" y="1744" width="1652" height="1009"/></clipPath><clipPath id="clip29"><rect x="4771" y="1744" width="1652" height="1009"/></clipPath><clipPath id="clip30"><rect x="4771" y="1744" width="1652" height="1009"/></clipPath><clipPath id="clip31"><rect x="4771" y="1744" width="1652" height="1009"/></clipPath><clipPath id="clip32"><rect x="4771" y="1744" width="1652" height="1009"/></clipPath></defs><g clip-path="url(#clip0)" transform="translate(-4771 -1743)"><rect x="4772" y="1744" width="1652" height="1010" fill="#FFFFFF"/><g clip-path="url(#clip1)"><path d="M4934.5 2497.58 6373.5 2497.58M4934.5 2424.58 6373.5 2424.58M4934.5 2352.58 6373.5 2352.58M4934.5 2279.57 6373.5 2279.57M4934.5 2206.57 6373.5 2206.57M4934.5 2133.57 6373.5 2133.57M4934.5 2060.57 6373.5 2060.57M4934.5 1987.57 6373.5 1987.57M4934.5 1914.5 6373.5 1914.5" stroke="#D9D9D9" stroke-width="3.4375" stroke-linejoin="round" stroke-miterlimit="10" fill="none"/></g><g clip-path="url(#clip2)"><rect x="5789" y="2386" width="50" height="185" fill="#ED7D31"/></g><g clip-path="url(#clip3)"><rect x="5949" y="2009" width="50" height="562" fill="#ED7D31"/></g><g clip-path="url(#clip4)"><rect x="6108" y="2295" width="50" height="276" fill="#ED7D31"/></g><g clip-path="url(#clip5)"><rect x="6268" y="2421" width="50" height="150" fill="#ED7D31"/></g><g clip-path="url(#clip6)"><path d="M4989.16 2513.08 5039.17 2513.08 5039.17 2571 4989.16 2571ZM5149.17 2490.08 5199.17 2490.08 5199.17 2571 5149.17 2571ZM5309.17 2535.08 5359.18 2535.08 5359.18 2571 5309.17 2571ZM5469.18 2485.08 5519.18 2485.08 5519.18 2571 5469.18 2571Z" fill="#4472C4"/></g><g clip-path="url(#clip7)"><path d="M4934.5 2570.5 6373.5 2570.5" stroke="#D9D9D9" stroke-width="3.4375" stroke-linejoin="round" stroke-miterlimit="10" fill="none" fill-rule="evenodd"/></g><g clip-path="url(#clip8)"><path d="M4934.5 2570.5 4934.5 2650.5M5733.69 2570.5 5733.69 2650.5M6373.5 2570.5 6373.5 2650.5" stroke="#D9D9D9" stroke-width="3.4375" stroke-linejoin="round" stroke-miterlimit="10" fill="none"/></g><g clip-path="url(#clip9)"><path d="M4934.5 2650.5 4934.5 2730.5M5733.69 2650.5 5733.69 2730.5M6373.5 2650.5 6373.5 2730.5" stroke="#D9D9D9" stroke-width="3.4375" stroke-linejoin="round" stroke-miterlimit="10" fill="none"/></g><g clip-path="url(#clip10)"><text fill="#595959" font-family="Calibri,Calibri_MSFontService,sans-serif" font-weight="400" font-size="41" transform="matrix(1 0 0 1 4801.65 2583)">00:00</text></g><g clip-path="url(#clip11)"><text fill="#595959" font-family="Calibri,Calibri_MSFontService,sans-serif" font-weight="400" font-size="41" transform="matrix(1 0 0 1 4801.65 2510)">00:28</text></g><g clip-path="url(#clip12)"><text fill="#595959" font-family="Calibri,Calibri_MSFontService,sans-serif" font-weight="400" font-size="41" transform="matrix(1 0 0 1 4801.65 2437)">00:57</text></g><g clip-path="url(#clip13)"><text fill="#595959" font-family="Calibri,Calibri_MSFontService,sans-serif" font-weight="400" font-size="41" transform="matrix(1 0 0 1 4801.65 2364)">01:26</text></g><g clip-path="url(#clip14)"><text fill="#595959" font-family="Calibri,Calibri_MSFontService,sans-serif" font-weight="400" font-size="41" transform="matrix(1 0 0 1 4801.65 2291)">01:55</text></g><g clip-path="url(#clip15)"><text fill="#595959" font-family="Calibri,Calibri_MSFontService,sans-serif" font-weight="400" font-size="41" transform="matrix(1 0 0 1 4801.65 2218)">02:24</text></g><g clip-path="url(#clip16)"><text fill="#595959" font-family="Calibri,Calibri_MSFontService,sans-serif" font-weight="400" font-size="41" transform="matrix(1 0 0 1 4801.65 2145)">02:52</text></g><g clip-path="url(#clip17)"><text fill="#595959" font-family="Calibri,Calibri_MSFontService,sans-serif" font-weight="400" font-size="41" transform="matrix(1 0 0 1 4801.65 2072)">03:21</text></g><g clip-path="url(#clip18)"><text fill="#595959" font-family="Calibri,Calibri_MSFontService,sans-serif" font-weight="400" font-size="41" transform="matrix(1 0 0 1 4801.65 1999)">03:50</text></g><g clip-path="url(#clip19)"><text fill="#595959" font-family="Calibri,Calibri_MSFontService,sans-serif" font-weight="400" font-size="41" transform="matrix(1 0 0 1 4801.65 1926)">04:19</text></g><g clip-path="url(#clip20)"><text fill="#595959" font-family="Calibri,Calibri_MSFontService,sans-serif" font-weight="400" font-size="41" transform="matrix(1 0 0 1 5004.04 2636)">5</text></g><g clip-path="url(#clip21)"><text fill="#595959" font-family="Calibri,Calibri_MSFontService,sans-serif" font-weight="400" font-size="41" transform="matrix(1 0 0 1 5163.88 2636)">6</text></g><g clip-path="url(#clip22)"><text fill="#595959" font-family="Calibri,Calibri_MSFontService,sans-serif" font-weight="400" font-size="41" transform="matrix(1 0 0 1 5323.73 2636)">7</text></g><g clip-path="url(#clip23)"><text fill="#595959" font-family="Calibri,Calibri_MSFontService,sans-serif" font-weight="400" font-size="41" transform="matrix(1 0 0 1 5483.58 2636)">8</text></g><g clip-path="url(#clip24)"><text fill="#595959" font-family="Calibri,Calibri_MSFontService,sans-serif" font-weight="400" font-size="41" transform="matrix(1 0 0 1 5803.28 2636)">1</text></g><g clip-path="url(#clip25)"><text fill="#595959" font-family="Calibri,Calibri_MSFontService,sans-serif" font-weight="400" font-size="41" transform="matrix(1 0 0 1 5963.13 2636)">2</text></g><g clip-path="url(#clip26)"><text fill="#595959" font-family="Calibri,Calibri_MSFontService,sans-serif" font-weight="400" font-size="41" transform="matrix(1 0 0 1 6122.98 2636)">3</text></g><g clip-path="url(#clip27)"><text fill="#595959" font-family="Calibri,Calibri_MSFontService,sans-serif" font-weight="400" font-size="41" transform="matrix(1 0 0 1 6282.82 2636)">4</text></g><g clip-path="url(#clip28)"><text fill="#595959" font-family="Calibri,Calibri_MSFontService,sans-serif" font-weight="400" font-size="41" transform="matrix(1 0 0 1 5293.36 2716)">With</text></g><g clip-path="url(#clip29)"><text fill="#595959" font-family="Calibri,Calibri_MSFontService,sans-serif" font-weight="400" font-size="41" transform="matrix(1 0 0 1 5984.05 2716)">Without</text></g><g clip-path="url(#clip30)"><text fill="#595959" font-family="Calibri,Calibri_MSFontService,sans-serif" font-weight="400" font-size="64" transform="matrix(1 0 0 1 5070.11 1840)">Task 3  </text></g><g clip-path="url(#clip31)"><text fill="#595959" font-family="Calibri,Calibri_MSFontService,sans-serif" font-weight="400" font-size="64" transform="matrix(1 0 0 1 5257.39 1840)">-</text></g><g clip-path="url(#clip32)"><text fill="#595959" font-family="Calibri,Calibri_MSFontService,sans-serif" font-weight="400" font-size="64" transform="matrix(1 0 0 1 5291.53 1840)">Sensitive emails sent by address</text></g><rect x="4772.5" y="1744.5" width="1652" height="1010" stroke="#D9D9D9" stroke-width="3.4375" stroke-linejoin="round" stroke-miterlimit="10" fill="none"/></g></svg>