<svg width="1647" height="983" xmlns="http://www.w3.org/2000/svg" xmlns:xlink="http://www.w3.org/1999/xlink" xml:space="preserve" overflow="hidden"><defs><clipPath id="clip0"><rect x="1327" y="716" width="1647" height="983"/></clipPath><clipPath id="clip1"><rect x="1327" y="717" width="1644" height="979"/></clipPath><clipPath id="clip2"><rect x="1490" y="887" width="1434" height="601"/></clipPath><clipPath id="clip3"><rect x="1490" y="887" width="1434" height="601"/></clipPath><clipPath id="clip4"><rect x="1327" y="717" width="1644" height="979"/></clipPath><clipPath id="clip5"><rect x="1327" y="717" width="1644" height="979"/></clipPath><clipPath id="clip6"><rect x="1327" y="717" width="1644" height="979"/></clipPath><clipPath id="clip7"><rect x="1327" y="717" width="1644" height="979"/></clipPath><clipPath id="clip8"><rect x="1327" y="717" width="1644" height="979"/></clipPath><clipPath id="clip9"><rect x="1327" y="717" width="1644" height="979"/></clipPath><clipPath id="clip10"><rect x="1327" y="717" width="1644" height="979"/></clipPath><clipPath id="clip11"><rect x="1327" y="717" width="1644" height="979"/></clipPath><clipPath id="clip12"><rect x="1327" y="717" width="1644" height="979"/></clipPath><clipPath id="clip13"><rect x="1327" y="717" width="1644" height="979"/></clipPath><clipPath id="clip14"><rect x="1327" y="717" width="1644" height="979"/></clipPath><clipPath id="clip15"><rect x="1327" y="717" width="1644" height="979"/></clipPath><clipPath id="clip16"><rect x="1327" y="717" width="1644" height="979"/></clipPath><clipPath id="clip17"><rect x="1327" y="717" width="1644" height="979"/></clipPath><clipPath id="clip18"><rect x="1327" y="717" width="1644" height="979"/></clipPath><clipPath id="clip19"><rect x="1327" y="717" width="1644" height="979"/></clipPath><clipPath id="clip20"><rect x="1327" y="717" width="1644" height="979"/></clipPath><clipPath id="clip21"><rect x="1327" y="717" width="1644" height="979"/></clipPath><clipPath id="clip22"><rect x="1327" y="717" width="1644" height="979"/></clipPath><clipPath id="clip23"><rect x="1327" y="717" width="1644" height="979"/></clipPath><clipPath id="clip24"><rect x="1327" y="717" width="1644" height="979"/></clipPath><clipPath id="clip25"><rect x="1327" y="717" width="1644" height="979"/></clipPath><clipPath id="clip26"><rect x="1327" y="717" width="1644" height="979"/></clipPath></defs><g clip-path="url(#clip0)" transform="translate(-1327 -716)"><rect x="1328" y="717" width="1644" height="980" fill="#FFFFFF"/><g clip-path="url(#clip1)"><path d="M1490.5 1419.55 2921.5 1419.55M1490.5 1352.54 2921.5 1352.54M1490.5 1286.54 2921.5 1286.54M1490.5 1219.54 2921.5 1219.54M1490.5 1153.54 2921.5 1153.54M1490.5 1086.54 2921.5 1086.54M1490.5 1020.53 2921.5 1020.53M1490.5 953.531 2921.5 953.531M1490.5 887.5 2921.5 887.5" stroke="#D9D9D9" stroke-width="3.4375" stroke-linejoin="round" stroke-miterlimit="10" fill="none"/></g><g clip-path="url(#clip2)"><path d="M1549.05 1310.04 1603.05 1310.04 1603.05 1486 1549.05 1486ZM1788.06 1404.05 1841.06 1404.05 1841.06 1486 1788.06 1486ZM2026.07 1218.04 2079.07 1218.04 2079.07 1486 2026.07 1486ZM2264.07 1410.05 2318.08 1410.05 2318.08 1486 2264.07 1486ZM2503.08 1376.05 2556.08 1376.05 2556.08 1486 2503.08 1486ZM2741.09 1363.04 2795.09 1363.04 2795.09 1486 2741.09 1486Z" fill="#4472C4"/></g><g clip-path="url(#clip3)"><path d="M1617.05 924.03 1670.05 924.03 1670.05 1486 1617.05 1486ZM1855.06 1074.04 1909.06 1074.04 1909.06 1486 1855.06 1486ZM2094.07 1426.05 2147.07 1426.05 2147.07 1486 2094.07 1486ZM2332.08 1414.05 2386.08 1414.05 2386.08 1486 2332.08 1486ZM2571.08 1442.05 2624.09 1442.05 2624.09 1486 2571.08 1486ZM2809.09 1325.04 2862.09 1325.04 2862.09 1486 2809.09 1486Z" fill="#ED7D31"/></g><g clip-path="url(#clip4)"><path d="M1490.5 1485.5 2921.5 1485.5" stroke="#D9D9D9" stroke-width="3.4375" stroke-linejoin="round" stroke-miterlimit="10" fill="none" fill-rule="evenodd"/></g><g clip-path="url(#clip5)"><path d="M1490.5 1485.5 1490.5 1498.5M1728.56 1485.5 1728.56 1498.5M1967.56 1485.5 1967.56 1498.5M2205.57 1485.5 2205.57 1498.5M2444.58 1485.5 2444.58 1498.5M2682.59 1485.5 2682.59 1498.5M2921.5 1485.5 2921.5 1498.5" stroke="#D9D9D9" stroke-width="3.4375" stroke-linejoin="round" stroke-miterlimit="10" fill="none"/></g><g clip-path="url(#clip6)"><text fill="#595959" font-family="Calibri,Calibri_MSFontService,sans-serif" font-weight="400" font-size="41" transform="matrix(1 0 0 1 1357.71 1497)">00:00</text></g><g clip-path="url(#clip7)"><text fill="#595959" font-family="Calibri,Calibri_MSFontService,sans-serif" font-weight="400" font-size="41" transform="matrix(1 0 0 1 1357.71 1431)">00:28</text></g><g clip-path="url(#clip8)"><text fill="#595959" font-family="Calibri,Calibri_MSFontService,sans-serif" font-weight="400" font-size="41" transform="matrix(1 0 0 1 1357.71 1364)">00:57</text></g><g clip-path="url(#clip9)"><text fill="#595959" font-family="Calibri,Calibri_MSFontService,sans-serif" font-weight="400" font-size="41" transform="matrix(1 0 0 1 1357.71 1298)">01:26</text></g><g clip-path="url(#clip10)"><text fill="#595959" font-family="Calibri,Calibri_MSFontService,sans-serif" font-weight="400" font-size="41" transform="matrix(1 0 0 1 1357.71 1231)">01:55</text></g><g clip-path="url(#clip11)"><text fill="#595959" font-family="Calibri,Calibri_MSFontService,sans-serif" font-weight="400" font-size="41" transform="matrix(1 0 0 1 1357.71 1165)">02:24</text></g><g clip-path="url(#clip12)"><text fill="#595959" font-family="Calibri,Calibri_MSFontService,sans-serif" font-weight="400" font-size="41" transform="matrix(1 0 0 1 1357.71 1098)">02:52</text></g><g clip-path="url(#clip13)"><text fill="#595959" font-family="Calibri,Calibri_MSFontService,sans-serif" font-weight="400" font-size="41" transform="matrix(1 0 0 1 1357.71 1032)">03:21</text></g><g clip-path="url(#clip14)"><text fill="#595959" font-family="Calibri,Calibri_MSFontService,sans-serif" font-weight="400" font-size="41" transform="matrix(1 0 0 1 1357.71 965)">03:50</text></g><g clip-path="url(#clip15)"><text fill="#595959" font-family="Calibri,Calibri_MSFontService,sans-serif" font-weight="400" font-size="41" transform="matrix(1 0 0 1 1357.71 899)">04:19</text></g><g clip-path="url(#clip16)"><text fill="#595959" font-family="Calibri,Calibri_MSFontService,sans-serif" font-weight="400" font-size="41" transform="matrix(1 0 0 1 1557.35 1551)">Task 1</text></g><g clip-path="url(#clip17)"><text fill="#595959" font-family="Calibri,Calibri_MSFontService,sans-serif" font-weight="400" font-size="41" transform="matrix(1 0 0 1 1795.77 1551)">Task 2</text></g><g clip-path="url(#clip18)"><text fill="#595959" font-family="Calibri,Calibri_MSFontService,sans-serif" font-weight="400" font-size="41" transform="matrix(1 0 0 1 2034.19 1551)">Task 3</text></g><g clip-path="url(#clip19)"><text fill="#595959" font-family="Calibri,Calibri_MSFontService,sans-serif" font-weight="400" font-size="41" transform="matrix(1 0 0 1 2272.61 1551)">Task 4</text></g><g clip-path="url(#clip20)"><text fill="#595959" font-family="Calibri,Calibri_MSFontService,sans-serif" font-weight="400" font-size="41" transform="matrix(1 0 0 1 2511.02 1551)">Task 5</text></g><g clip-path="url(#clip21)"><text fill="#595959" font-family="Calibri,Calibri_MSFontService,sans-serif" font-weight="400" font-size="41" transform="matrix(1 0 0 1 2749.44 1551)">Task 6</text></g><g clip-path="url(#clip22)"><text fill="#595959" font-family="Calibri,Calibri_MSFontService,sans-serif" font-weight="400" font-size="64" transform="matrix(1 0 0 1 2014.15 813)">Chart Title</text></g><g clip-path="url(#clip23)"><rect x="1948" y="1619" width="23" height="23" fill="#4472C4"/></g><g clip-path="url(#clip24)"><text fill="#595959" font-family="Calibri,Calibri_MSFontService,sans-serif" font-weight="400" font-size="41" transform="matrix(1 0 0 1 1980.35 1642)">Version 1</text></g><g clip-path="url(#clip25)"><rect x="2178" y="1619" width="23" height="23" fill="#ED7D31"/></g><g clip-path="url(#clip26)"><text fill="#595959" font-family="Calibri,Calibri_MSFontService,sans-serif" font-weight="400" font-size="41" transform="matrix(1 0 0 1 2210.29 1642)">Version 2</text></g><rect x="1328.5" y="717.5" width="1644" height="980" stroke="#D9D9D9" stroke-width="3.4375" stroke-linejoin="round" stroke-miterlimit="10" fill="none"/></g></svg>